<?xml version="1.0" encoding="UTF-8" standalone="no"?>
<!DOCTYPE svg PUBLIC "-//W3C//DTD SVG 1.1//EN"
 "http://www.w3.org/Graphics/SVG/1.1/DTD/svg11.dtd">
<!-- Generated by graphviz version 9.0.0 (20230911.1827)
 -->
<!-- Pages: 1 -->
<svg width="2754pt" height="260pt"
 viewBox="0.00 0.00 2753.87 260.00" xmlns="http://www.w3.org/2000/svg" xmlns:xlink="http://www.w3.org/1999/xlink">
<g id="graph0" class="graph" transform="scale(1 1) rotate(0) translate(4 256)">
<polygon fill="white" stroke="none" points="-4,4 -4,-256 2749.87,-256 2749.87,4 -4,4"/>
<!-- auth_logs -->
<g id="node1" class="node">
<title>auth_logs</title>
<polygon fill="none" stroke="black" points="114.85,-180 37.63,-180 10.13,-144 142.35,-144 114.85,-180"/>
<text text-anchor="middle" x="76.24" y="-156.95" font-family="Times,serif" font-size="14.00">auth_logs</text>
</g>
<!-- auth_parser -->
<g id="node6" class="node">
<title>auth_parser</title>
<polygon fill="none" stroke="black" points="76.24,-108 0,-90 76.24,-72 152.48,-90 76.24,-108"/>
<text text-anchor="middle" x="76.24" y="-84.95" font-family="Times,serif" font-size="14.00">auth_parser</text>
</g>
<!-- auth_logs&#45;&gt;auth_parser -->
<g id="edge1" class="edge">
<title>auth_logs&#45;&gt;auth_parser</title>
<path fill="none" stroke="black" d="M76.24,-143.7C76.24,-136.41 76.24,-127.73 76.24,-119.54"/>
<polygon fill="black" stroke="black" points="79.74,-119.62 76.24,-109.62 72.74,-119.62 79.74,-119.62"/>
</g>
<!-- journald -->
<g id="node2" class="node">
<title>journald</title>
<polygon fill="none" stroke="black" points="263.62,-108 194.86,-108 170.37,-72 288.11,-72 263.62,-108"/>
<text text-anchor="middle" x="229.24" y="-84.95" font-family="Times,serif" font-size="14.00">journald</text>
</g>
<!-- loki -->
<g id="node13" class="node">
<title>loki</title>
<polygon fill="none" stroke="black" points="290.39,0 332.09,0 346.95,-36 275.53,-36 290.39,0"/>
<text text-anchor="middle" x="311.24" y="-12.95" font-family="Times,serif" font-size="14.00">loki</text>
</g>
<!-- journald&#45;&gt;loki -->
<g id="edge9" class="edge">
<title>journald&#45;&gt;loki</title>
<path fill="none" stroke="black" d="M249.51,-71.7C259.37,-63.28 271.39,-53.02 282.2,-43.79"/>
<polygon fill="black" stroke="black" points="284.44,-46.48 289.77,-37.33 279.89,-41.16 284.44,-46.48"/>
</g>
<!-- syslog_logs -->
<g id="node3" class="node">
<title>syslog_logs</title>
<polygon fill="none" stroke="black" points="438.19,-180 348.29,-180 316.28,-144 470.21,-144 438.19,-180"/>
<text text-anchor="middle" x="393.24" y="-156.95" font-family="Times,serif" font-size="14.00">syslog_logs</text>
</g>
<!-- syslog_parser -->
<g id="node8" class="node">
<title>syslog_parser</title>
<polygon fill="none" stroke="black" points="393.24,-108 306.14,-90 393.24,-72 480.34,-90 393.24,-108"/>
<text text-anchor="middle" x="393.24" y="-84.95" font-family="Times,serif" font-size="14.00">syslog_parser</text>
</g>
<!-- syslog_logs&#45;&gt;syslog_parser -->
<g id="edge3" class="edge">
<title>syslog_logs&#45;&gt;syslog_parser</title>
<path fill="none" stroke="black" d="M393.24,-143.7C393.24,-136.41 393.24,-127.73 393.24,-119.54"/>
<polygon fill="black" stroke="black" points="396.74,-119.62 393.24,-109.62 389.74,-119.62 396.74,-119.62"/>
</g>
<!-- vector_logs -->
<g id="node4" class="node">
<title>vector_logs</title>
<polygon fill="none" stroke="black" points="1585.77,-252 1496.71,-252 1465,-216 1617.48,-216 1585.77,-252"/>
<text text-anchor="middle" x="1541.24" y="-228.95" font-family="Times,serif" font-size="14.00">vector_logs</text>
</g>
<!-- catchall_parser -->
<g id="node7" class="node">
<title>catchall_parser</title>
<polygon fill="none" stroke="black" points="920.24,-180 825.9,-162 920.24,-144 1014.58,-162 920.24,-180"/>
<text text-anchor="middle" x="920.24" y="-156.95" font-family="Times,serif" font-size="14.00">catchall_parser</text>
</g>
<!-- vector_logs&#45;&gt;catchall_parser -->
<g id="edge2" class="edge">
<title>vector_logs&#45;&gt;catchall_parser</title>
<path fill="none" stroke="black" d="M1472.71,-225.27C1353.23,-211.81 1108.16,-184.18 988.72,-170.72"/>
<polygon fill="black" stroke="black" points="989.39,-167.27 979.06,-169.63 988.61,-174.23 989.39,-167.27"/>
</g>
<!-- vector_parser_add_timestamp -->
<g id="node9" class="node">
<title>vector_parser_add_timestamp</title>
<polygon fill="none" stroke="black" points="1541.24,-180 1367.29,-162 1541.24,-144 1715.2,-162 1541.24,-180"/>
<text text-anchor="middle" x="1541.24" y="-156.95" font-family="Times,serif" font-size="14.00">vector_parser_add_timestamp</text>
</g>
<!-- vector_logs&#45;&gt;vector_parser_add_timestamp -->
<g id="edge4" class="edge">
<title>vector_logs&#45;&gt;vector_parser_add_timestamp</title>
<path fill="none" stroke="black" d="M1541.24,-215.7C1541.24,-208.41 1541.24,-199.73 1541.24,-191.54"/>
<polygon fill="black" stroke="black" points="1544.74,-191.62 1541.24,-181.62 1537.74,-191.62 1544.74,-191.62"/>
</g>
<!-- vector_parser_modify -->
<g id="node10" class="node">
<title>vector_parser_modify</title>
<polygon fill="none" stroke="black" points="2265.24,-180 2133.99,-162 2265.24,-144 2396.49,-162 2265.24,-180"/>
<text text-anchor="middle" x="2265.24" y="-156.95" font-family="Times,serif" font-size="14.00">vector_parser_modify</text>
</g>
<!-- vector_logs&#45;&gt;vector_parser_modify -->
<g id="edge5" class="edge">
<title>vector_logs&#45;&gt;vector_parser_modify</title>
<path fill="none" stroke="black" d="M1608.7,-226.48C1740.85,-213.7 2033.59,-185.4 2179.33,-171.31"/>
<polygon fill="black" stroke="black" points="2179.3,-174.83 2188.91,-170.38 2178.62,-167.86 2179.3,-174.83"/>
</g>
<!-- vector_metrics -->
<g id="node5" class="node">
<title>vector_metrics</title>
<polygon fill="none" stroke="black" points="2562.91,-252 2453.57,-252 2414.63,-216 2601.85,-216 2562.91,-252"/>
<text text-anchor="middle" x="2508.24" y="-228.95" font-family="Times,serif" font-size="14.00">vector_metrics</text>
</g>
<!-- prom_exporter -->
<g id="node14" class="node">
<title>prom_exporter</title>
<polygon fill="none" stroke="black" points="2453.57,-144 2562.91,-144 2601.85,-180 2414.63,-180 2453.57,-144"/>
<text text-anchor="middle" x="2508.24" y="-156.95" font-family="Times,serif" font-size="14.00">prom_exporter</text>
</g>
<!-- vector_metrics&#45;&gt;prom_exporter -->
<g id="edge12" class="edge">
<title>vector_metrics&#45;&gt;prom_exporter</title>
<path fill="none" stroke="black" d="M2508.24,-215.7C2508.24,-208.41 2508.24,-199.73 2508.24,-191.54"/>
<polygon fill="black" stroke="black" points="2511.74,-191.62 2508.24,-181.62 2504.74,-191.62 2511.74,-191.62"/>
</g>
<!-- auth_parser&#45;&gt;loki -->
<g id="edge11" class="edge">
<title>auth_parser&#45;&gt;loki</title>
<path fill="none" stroke="black" d="M108.92,-79.27C150.16,-66.98 221.26,-45.8 267.25,-32.1"/>
<polygon fill="black" stroke="black" points="268.05,-35.52 276.63,-29.31 266.05,-28.81 268.05,-35.52"/>
</g>
<!-- catchall_parser_add_timestamp_test_file_sink_json -->
<g id="node12" class="node">
<title>catchall_parser_add_timestamp_test_file_sink_json</title>
<polygon fill="none" stroke="black" points="617.7,-72 952.78,-72 1072.11,-108 498.37,-108 617.7,-72"/>
<text text-anchor="middle" x="785.24" y="-84.95" font-family="Times,serif" font-size="14.00">catchall_parser_add_timestamp_test_file_sink_json</text>
</g>
<!-- catchall_parser&#45;&gt;catchall_parser_add_timestamp_test_file_sink_json -->
<g id="edge7" class="edge">
<title>catchall_parser&#45;&gt;catchall_parser_add_timestamp_test_file_sink_json</title>
<path fill="none" stroke="black" d="M895.79,-148.32C877.23,-138.7 851.21,-125.21 829.08,-113.73"/>
<polygon fill="black" stroke="black" points="830.73,-110.65 820.24,-109.15 827.51,-116.86 830.73,-110.65"/>
</g>
<!-- syslog_parser&#45;&gt;loki -->
<g id="edge10" class="edge">
<title>syslog_parser&#45;&gt;loki</title>
<path fill="none" stroke="black" d="M377.04,-75.17C366.52,-66.19 352.52,-54.24 340.14,-43.67"/>
<polygon fill="black" stroke="black" points="342.51,-41.09 332.63,-37.26 337.96,-46.41 342.51,-41.09"/>
</g>
<!-- vector_parser_add_timestamp_test_file_sink -->
<g id="node15" class="node">
<title>vector_parser_add_timestamp_test_file_sink</title>
<polygon fill="none" stroke="black" points="1194.84,-72 1487.64,-72 1591.92,-108 1090.56,-108 1194.84,-72"/>
<text text-anchor="middle" x="1341.24" y="-84.95" font-family="Times,serif" font-size="14.00">vector_parser_add_timestamp_test_file_sink</text>
</g>
<!-- vector_parser_add_timestamp&#45;&gt;vector_parser_add_timestamp_test_file_sink -->
<g id="edge13" class="edge">
<title>vector_parser_add_timestamp&#45;&gt;vector_parser_add_timestamp_test_file_sink</title>
<path fill="none" stroke="black" d="M1502.68,-147.5C1474.12,-137.51 1434.66,-123.7 1401.89,-112.23"/>
<polygon fill="black" stroke="black" points="1403.09,-108.94 1392.49,-108.94 1400.78,-115.55 1403.09,-108.94"/>
</g>
<!-- vector_parser_add_timestamp_test_file_sink_json -->
<g id="node16" class="node">
<title>vector_parser_add_timestamp_test_file_sink_json</title>
<polygon fill="none" stroke="black" points="1726.35,-72 2052.13,-72 2168.15,-108 1610.33,-108 1726.35,-72"/>
<text text-anchor="middle" x="1889.24" y="-84.95" font-family="Times,serif" font-size="14.00">vector_parser_add_timestamp_test_file_sink_json</text>
</g>
<!-- vector_parser_add_timestamp&#45;&gt;vector_parser_add_timestamp_test_file_sink_json -->
<g id="edge14" class="edge">
<title>vector_parser_add_timestamp&#45;&gt;vector_parser_add_timestamp_test_file_sink_json</title>
<path fill="none" stroke="black" d="M1598.32,-149.52C1650.61,-139 1729.14,-123.2 1791.43,-110.67"/>
<polygon fill="black" stroke="black" points="1791.87,-114.16 1800.98,-108.75 1790.49,-107.29 1791.87,-114.16"/>
</g>
<!-- vector_parser_modify_malformed_message_filter -->
<g id="node11" class="node">
<title>vector_parser_modify_malformed_message_filter</title>
<polygon fill="none" stroke="black" points="2466.24,-108 2186.61,-90 2466.24,-72 2745.87,-90 2466.24,-108"/>
<text text-anchor="middle" x="2466.24" y="-84.95" font-family="Times,serif" font-size="14.00">vector_parser_modify_malformed_message_filter</text>
</g>
<!-- vector_parser_modify&#45;&gt;vector_parser_modify_malformed_message_filter -->
<g id="edge6" class="edge">
<title>vector_parser_modify&#45;&gt;vector_parser_modify_malformed_message_filter</title>
<path fill="none" stroke="black" d="M2301.18,-148.49C2332.39,-137.62 2378.01,-121.73 2413.38,-109.41"/>
<polygon fill="black" stroke="black" points="2414.28,-112.8 2422.57,-106.21 2411.98,-106.19 2414.28,-112.8"/>
</g>
<!-- vector_parser_modify_malformed_message_filter&#45;&gt;loki -->
<g id="edge8" class="edge">
<title>vector_parser_modify_malformed_message_filter&#45;&gt;loki</title>
<path fill="none" stroke="black" d="M2331.38,-80.22C2282.81,-77.28 2227.58,-74.19 2177.24,-72 1445.47,-40.09 551.39,-23.21 351.94,-19.7"/>
<polygon fill="black" stroke="black" points="352.17,-16.2 342.11,-19.53 352.05,-23.2 352.17,-16.2"/>
</g>
</g>
</svg>
