<?xml version="1.0" encoding="UTF-8" standalone="no"?>
<!DOCTYPE svg PUBLIC "-//W3C//DTD SVG 1.1//EN"
 "http://www.w3.org/Graphics/SVG/1.1/DTD/svg11.dtd">
<!-- Generated by graphviz version 9.0.0 (20230911.1827)
 -->
<!-- Pages: 1 -->
<svg width="1327pt" height="260pt"
 viewBox="0.00 0.00 1327.48 260.00" xmlns="http://www.w3.org/2000/svg" xmlns:xlink="http://www.w3.org/1999/xlink">
<g id="graph0" class="graph" transform="scale(1 1) rotate(0) translate(4 256)">
<polygon fill="white" stroke="none" points="-4,4 -4,-256 1323.48,-256 1323.48,4 -4,4"/>
<!-- journald -->
<g id="node1" class="node">
<title>journald</title>
<polygon fill="none" stroke="black" points="93.25,-252 24.49,-252 0,-216 117.74,-216 93.25,-252"/>
<text text-anchor="middle" x="58.87" y="-228.95" font-family="Times,serif" font-size="14.00">journald</text>
</g>
<!-- proxmox_task_logs -->
<g id="node2" class="node">
<title>proxmox_task_logs</title>
<polygon fill="none" stroke="black" points="798.34,-252 659.4,-252 609.92,-216 847.81,-216 798.34,-252"/>
<text text-anchor="middle" x="728.87" y="-228.95" font-family="Times,serif" font-size="14.00">proxmox_task_logs</text>
</g>
<!-- add_host_parser -->
<g id="node7" class="node">
<title>add_host_parser</title>
<polygon fill="none" stroke="black" points="449.87,-180 349.02,-162 449.87,-144 550.72,-162 449.87,-180"/>
<text text-anchor="middle" x="449.87" y="-156.95" font-family="Times,serif" font-size="14.00">add_host_parser</text>
</g>
<!-- proxmox_task_logs&#45;&gt;add_host_parser -->
<g id="edge1" class="edge">
<title>proxmox_task_logs&#45;&gt;add_host_parser</title>
<path fill="none" stroke="black" d="M659.19,-215.52C610.34,-203.26 546.1,-187.14 501.73,-176.01"/>
<polygon fill="black" stroke="black" points="502.64,-172.63 492.09,-173.59 500.94,-179.42 502.64,-172.63"/>
</g>
<!-- proxmox_task_logs_reduce -->
<g id="node8" class="node">
<title>proxmox_task_logs_reduce</title>
<polygon fill="none" stroke="black" points="728.87,-180 568.67,-162 728.87,-144 889.07,-162 728.87,-180"/>
<text text-anchor="middle" x="728.87" y="-156.95" font-family="Times,serif" font-size="14.00">proxmox_task_logs_reduce</text>
</g>
<!-- proxmox_task_logs&#45;&gt;proxmox_task_logs_reduce -->
<g id="edge4" class="edge">
<title>proxmox_task_logs&#45;&gt;proxmox_task_logs_reduce</title>
<path fill="none" stroke="black" d="M728.87,-215.7C728.87,-208.41 728.87,-199.73 728.87,-191.54"/>
<polygon fill="black" stroke="black" points="732.37,-191.62 728.87,-181.62 725.37,-191.62 732.37,-191.62"/>
</g>
<!-- var_log_logs -->
<g id="node3" class="node">
<title>var_log_logs</title>
<polygon fill="none" stroke="black" points="267.62,-252 170.12,-252 135.39,-216 302.35,-216 267.62,-252"/>
<text text-anchor="middle" x="218.87" y="-228.95" font-family="Times,serif" font-size="14.00">var_log_logs</text>
</g>
<!-- var_log_logs&#45;&gt;add_host_parser -->
<g id="edge2" class="edge">
<title>var_log_logs&#45;&gt;add_host_parser</title>
<path fill="none" stroke="black" d="M276.56,-215.52C315.56,-203.7 366.4,-188.29 402.92,-177.23"/>
<polygon fill="black" stroke="black" points="403.76,-180.63 412.31,-174.38 401.73,-173.93 403.76,-180.63"/>
</g>
<!-- var_log_wildcard_logs -->
<g id="node4" class="node">
<title>var_log_wildcard_logs</title>
<polygon fill="none" stroke="black" points="535.06,-252 376.68,-252 320.28,-216 591.46,-216 535.06,-252"/>
<text text-anchor="middle" x="455.87" y="-228.95" font-family="Times,serif" font-size="14.00">var_log_wildcard_logs</text>
</g>
<!-- var_log_wildcard_logs&#45;&gt;add_host_parser -->
<g id="edge3" class="edge">
<title>var_log_wildcard_logs&#45;&gt;add_host_parser</title>
<path fill="none" stroke="black" d="M454.39,-215.7C453.76,-208.41 453.02,-199.73 452.32,-191.54"/>
<polygon fill="black" stroke="black" points="455.81,-191.28 451.46,-181.61 448.83,-191.87 455.81,-191.28"/>
</g>
<!-- var_log_wildcard_logs&#45;&gt;proxmox_task_logs_reduce -->
<g id="edge5" class="edge">
<title>var_log_wildcard_logs&#45;&gt;proxmox_task_logs_reduce</title>
<path fill="none" stroke="black" d="M524.05,-215.52C569.14,-203.96 627.63,-188.96 670.55,-177.95"/>
<polygon fill="black" stroke="black" points="671.38,-181.35 680.2,-175.48 669.64,-174.57 671.38,-181.35"/>
</g>
<!-- vector_logs -->
<g id="node5" class="node">
<title>vector_logs</title>
<polygon fill="none" stroke="black" points="1082.4,-252 993.34,-252 961.63,-216 1114.11,-216 1082.4,-252"/>
<text text-anchor="middle" x="1037.87" y="-228.95" font-family="Times,serif" font-size="14.00">vector_logs</text>
</g>
<!-- vector_parser_modify -->
<g id="node9" class="node">
<title>vector_parser_modify</title>
<polygon fill="none" stroke="black" points="1037.87,-180 906.62,-162 1037.87,-144 1169.12,-162 1037.87,-180"/>
<text text-anchor="middle" x="1037.87" y="-156.95" font-family="Times,serif" font-size="14.00">vector_parser_modify</text>
</g>
<!-- vector_logs&#45;&gt;vector_parser_modify -->
<g id="edge6" class="edge">
<title>vector_logs&#45;&gt;vector_parser_modify</title>
<path fill="none" stroke="black" d="M1037.87,-215.7C1037.87,-208.41 1037.87,-199.73 1037.87,-191.54"/>
<polygon fill="black" stroke="black" points="1041.37,-191.62 1037.87,-181.62 1034.37,-191.62 1041.37,-191.62"/>
</g>
<!-- vector_metrics -->
<g id="node6" class="node">
<title>vector_metrics</title>
<polygon fill="none" stroke="black" points="1280.54,-252 1171.2,-252 1132.26,-216 1319.48,-216 1280.54,-252"/>
<text text-anchor="middle" x="1225.87" y="-228.95" font-family="Times,serif" font-size="14.00">vector_metrics</text>
</g>
<!-- vector_parser_modify_malformed_message_filter -->
<g id="node10" class="node">
<title>vector_parser_modify_malformed_message_filter</title>
<polygon fill="none" stroke="black" points="1037.87,-108 758.24,-90 1037.87,-72 1317.5,-90 1037.87,-108"/>
<text text-anchor="middle" x="1037.87" y="-84.95" font-family="Times,serif" font-size="14.00">vector_parser_modify_malformed_message_filter</text>
</g>
<!-- vector_parser_modify&#45;&gt;vector_parser_modify_malformed_message_filter -->
<g id="edge7" class="edge">
<title>vector_parser_modify&#45;&gt;vector_parser_modify_malformed_message_filter</title>
<path fill="none" stroke="black" d="M1037.87,-143.7C1037.87,-136.41 1037.87,-127.73 1037.87,-119.54"/>
<polygon fill="black" stroke="black" points="1041.37,-119.62 1037.87,-109.62 1034.37,-119.62 1041.37,-119.62"/>
</g>
<!-- console -->
<g id="node11" class="node">
<title>console</title>
<polygon fill="none" stroke="black" points="951.6,0 1016.14,0 1039.12,-36 928.62,-36 951.6,0"/>
<text text-anchor="middle" x="983.87" y="-12.95" font-family="Times,serif" font-size="14.00">console</text>
</g>
<!-- vector_parser_modify_malformed_message_filter&#45;&gt;console -->
<g id="edge8" class="edge">
<title>vector_parser_modify_malformed_message_filter&#45;&gt;console</title>
<path fill="none" stroke="black" d="M1025.07,-72.41C1018.87,-64.37 1011.27,-54.51 1004.29,-45.47"/>
<polygon fill="black" stroke="black" points="1007.13,-43.43 998.25,-37.65 1001.59,-47.7 1007.13,-43.43"/>
</g>
<!-- loki -->
<g id="node12" class="node">
<title>loki</title>
<polygon fill="none" stroke="black" points="1072.02,0 1113.72,0 1128.58,-36 1057.16,-36 1072.02,0"/>
<text text-anchor="middle" x="1092.87" y="-12.95" font-family="Times,serif" font-size="14.00">loki</text>
</g>
<!-- vector_parser_modify_malformed_message_filter&#45;&gt;loki -->
<g id="edge9" class="edge">
<title>vector_parser_modify_malformed_message_filter&#45;&gt;loki</title>
<path fill="none" stroke="black" d="M1050.9,-72.41C1057.22,-64.37 1064.97,-54.51 1072.07,-45.47"/>
<polygon fill="black" stroke="black" points="1074.8,-47.66 1078.23,-37.64 1069.3,-43.34 1074.8,-47.66"/>
</g>
</g>
</svg>
